<?xml version="1.0" encoding="UTF-8" standalone="no"?>
<svg
        viewBox="0 -256 1792 1792"
        id="svg2"
        version="1.1"
        inkscape:version="1.1 (c4e8f9e, 2021-05-24)"
        width="100%"
        height="100%"
        sodipodi:docname="File_alt_font_awesome_.svg"
        xmlns:inkscape="http://www.inkscape.org/namespaces/inkscape"
        xmlns:sodipodi="http://sodipodi.sourceforge.net/DTD/sodipodi-0.dtd"
        xmlns="http://www.w3.org/2000/svg"
        xmlns:svg="http://www.w3.org/2000/svg"
        xmlns:rdf="http://www.w3.org/1999/02/22-rdf-syntax-ns#"
        xmlns:cc="http://creativecommons.org/ns#"
        xmlns:dc="http://purl.org/dc/elements/1.1/">
  <metadata
          id="metadata12">
    <rdf:RDF>
      <cc:Work
              rdf:about="">
        <dc:format>image/svg+xml</dc:format>
        <dc:type
                rdf:resource="http://purl.org/dc/dcmitype/StillImage" />
      </cc:Work>
    </rdf:RDF>
  </metadata>
  <defs
          id="defs10" />
  <sodipodi:namedview
          pagecolor="#ffffff"
          bordercolor="#666666"
          borderopacity="1"
          objecttolerance="10"
          gridtolerance="10"
          guidetolerance="10"
          inkscape:pageopacity="0"
          inkscape:pageshadow="2"
          inkscape:window-width="1577"
          inkscape:window-height="949"
          id="namedview8"
          showgrid="false"
          inkscape:zoom="0.13169643"
          inkscape:cx="865.62711"
          inkscape:cy="1249.0847"
          inkscape:window-x="0"
          inkscape:window-y="23"
          inkscape:window-maximized="0"
          inkscape:current-layer="svg2"
          inkscape:pagecheckerboard="0" />
  <g
          transform="matrix(0.53135594,0,0,-0.61440678,599.8644,1008.2711)"
          id="g4">
    <path
            d="m 1024,352 v -64 q 0,-14 -9,-23 -9,-9 -23,-9 H 288 q -14,0 -23,9 -9,9 -9,23 v 64 q 0,14 9,23 9,9 23,9 h 704 q 14,0 23,-9 9,-9 9,-23 z m 0,256 v -64 q 0,-14 -9,-23 -9,-9 -23,-9 H 288 q -14,0 -23,9 -9,9 -9,23 v 64 q 0,14 9,23 9,9 23,9 h 704 q 14,0 23,-9 9,-9 9,-23 z M 128,0 H 1152 V 768 H 736 q -40,0 -68,28 -28,28 -28,68 v 416 H 128 Z m 640,896 h 299 L 768,1195 Z M 1280,768 V -32 q 0,-40 -28,-68 -28,-28 -68,-28 H 96 q -40,0 -68,28 -28,28 -28,68 v 1344 q 0,40 28,68 28,28 68,28 h 544 q 40,0 88,-20 48,-20 76,-48 l 408,-408 q 28,-28 48,-76 20,-48 20,-88 z"
            id="path6"
            inkscape:connector-curvature="0"
            style="fill:currentColor" />
  </g>
</svg>
